<?xml version="1.0" encoding="utf-8"?>
<!-- Generator: Adobe Illustrator 16.0.0, SVG Export Plug-In . SVG Version: 6.00 Build 0)  -->
<!DOCTYPE svg PUBLIC "-//W3C//DTD SVG 1.1//EN" "http://www.w3.org/Graphics/SVG/1.1/DTD/svg11.dtd">
<svg version="1.1" id="Layer_1" xmlns="http://www.w3.org/2000/svg" xmlns:xlink="http://www.w3.org/1999/xlink" x="0px" y="0px"
	 width="174.334px" height="180.333px" viewBox="0 0 174.334 180.333" enable-background="new 0 0 174.334 180.333"
	 xml:space="preserve">
<g>
	<path fill="#9A9A99" d="M150.992,66.203c-7.521-16.747-21.113-29.561-38.27-36.083c-7.859-2.986-16.072-4.501-24.403-4.501
		c-28.357,0-54.179,17.812-64.256,44.324c-6.523,17.158-5.972,35.831,1.549,52.579c7.522,16.742,21.115,29.559,38.273,36.074
		c7.86,2.99,16.072,4.506,24.407,4.506c28.355,0,54.175-17.814,64.25-44.326C159.064,101.62,158.514,82.948,150.992,66.203z
		 M150.551,118.02c-9.766,25.689-34.783,42.947-62.258,42.947c-8.074,0-16.031-1.467-23.649-4.363
		c-16.626-6.318-29.798-18.73-37.086-34.959C20.27,105.42,19.736,87.327,26.056,70.7c9.765-25.689,34.786-42.947,62.263-42.947
		c8.075,0,16.028,1.466,23.644,4.36c16.627,6.32,29.796,18.737,37.084,34.962C156.336,83.302,156.869,101.393,150.551,118.02z"/>
	<path fill="#9A9A99" d="M41.557,66.607l0.781,0.548c1.176,0.828,2.309,1.161,3.365,0.981c1.059-0.179,1.972-0.802,2.712-1.854
		l0.435-0.617c0.268-0.379,0.567-0.58,0.916-0.61c0.354-0.037,0.725,0.089,1.097,0.35l2.14,1.506
		c0.385,0.272,0.607,0.637,0.679,1.115c0.074,0.481-0.052,0.945-0.383,1.416l-2.31,3.281l1.872,1.317l2.165-3.075
		c0.863-1.227,1.231-2.402,1.091-3.493c-0.139-1.101-0.823-2.087-2.028-2.935l-1.357-0.957c-1.176-0.826-2.275-1.174-3.261-1.013
		c-0.993,0.152-1.858,0.744-2.569,1.755l-0.434,0.617c-0.28,0.398-0.625,0.625-1.051,0.696c-0.424,0.062-0.827-0.036-1.211-0.303
		l-1.564-1.1c-0.385-0.271-0.607-0.636-0.68-1.116c-0.073-0.481,0.054-0.944,0.385-1.416l2.324-3.301l-1.872-1.319l-2.179,3.096
		c-0.865,1.226-1.232,2.401-1.092,3.493C39.669,64.773,40.351,65.76,41.557,66.607z"/>
	<polygon fill="#9A9A99" points="56.329,47.829 64.938,60.958 67.084,59.548 58.475,46.421 61.82,44.228 60.564,42.314 
		51.886,48.006 51.729,48.109 52.983,50.022 	"/>
	<path fill="#9A9A99" d="M77.363,55.039l-1.459-7.148l2.112-0.433l4.567,6.398l0.071,0.101l2.747-0.559l-5.021-6.938
		c1.321-0.816,1.799-2.168,1.42-4.024l-0.483-2.368c-0.282-1.381-0.875-2.333-1.761-2.827c-0.878-0.49-2.05-0.592-3.487-0.298
		l-4.818,0.981l3.597,17.625L77.363,55.039z M74.219,39.631l2.602-0.532c0.566-0.117,1.014-0.077,1.313,0.116
		c0.299,0.19,0.509,0.577,0.626,1.146l0.578,2.834c0.117,0.572,0.075,1.014-0.124,1.314c-0.198,0.301-0.589,0.513-1.161,0.632
		l-2.601,0.529L74.219,39.631z"/>
	<polygon fill="#9A9A99" points="98.918,52.728 96.689,52.333 99.051,38.978 101.279,39.372 101.664,37.193 94.678,35.958 
		94.293,38.136 96.521,38.531 94.163,51.885 91.932,51.491 91.548,53.671 98.533,54.908 	"/>
	<polygon fill="#9A9A99" points="110.603,52.785 111.823,52.226 111.08,60.864 113.585,62.411 114.379,51.128 122.801,46.961 
		120.391,45.473 112.826,49.185 116.573,43.114 114.391,41.766 105.037,56.911 104.939,57.072 107.123,58.419 	"/>
	<polygon fill="#9A9A99" points="122.795,73.224 122.906,73.375 124.681,72.053 120.966,67.074 125.744,63.506 129.084,67.981 
		130.857,66.658 127.517,62.182 131.832,58.961 135.549,63.942 137.323,62.616 132.186,55.732 132.071,55.58 117.654,66.341 	"/>
	<path fill="#9A9A99" d="M134.589,121.133l-0.782-0.551c-1.178-0.826-2.315-1.154-3.363-0.977c-1.061,0.176-1.975,0.803-2.713,1.852
		l-0.436,0.619c-0.268,0.381-0.568,0.582-0.915,0.609c-0.358,0.035-0.726-0.088-1.097-0.348l-2.141-1.506
		c-0.387-0.273-0.609-0.639-0.679-1.117c-0.073-0.48,0.052-0.945,0.383-1.418l2.31-3.279l-1.873-1.318l-2.164,3.076
		c-0.864,1.229-1.23,2.4-1.09,3.492c0.137,1.1,0.819,2.086,2.025,2.936l1.358,0.957c1.175,0.826,2.268,1.174,3.261,1.014
		c0.992-0.154,1.855-0.746,2.568-1.758l0.436-0.617c0.279-0.398,0.625-0.625,1.051-0.695c0.424-0.064,0.83,0.033,1.209,0.301
		l1.565,1.104c0.384,0.27,0.608,0.635,0.681,1.113c0.072,0.482-0.053,0.947-0.384,1.418l-2.325,3.301l1.872,1.316l2.179-3.096
		c0.863-1.227,1.23-2.404,1.09-3.494C136.475,122.969,135.793,121.983,134.589,121.133z"/>
	<polygon fill="#9A9A99" points="119.815,139.915 111.206,126.786 109.061,128.196 117.672,141.321 114.326,143.516 
		115.582,145.428 124.26,139.737 124.417,139.633 123.161,137.721 	"/>
	<path fill="#9A9A99" d="M98.781,132.706l1.458,7.148l-2.11,0.43l-4.569-6.398l-0.072-0.102l-2.745,0.562l5.021,6.936
		c-1.32,0.82-1.799,2.17-1.42,4.025l0.483,2.369c0.282,1.381,0.874,2.33,1.761,2.824c0.549,0.309,1.215,0.467,1.982,0.467
		c0.459,0,0.967-0.059,1.504-0.168l4.818-0.984l-3.597-17.623L98.781,132.706z M101.924,148.11l-2.598,0.535
		c-0.217,0.041-0.414,0.062-0.592,0.062c-0.295,0-0.538-0.059-0.725-0.18c-0.299-0.189-0.51-0.578-0.623-1.146l-0.578-2.832
		c-0.117-0.572-0.077-1.018,0.123-1.318c0.201-0.301,0.591-0.512,1.16-0.629l2.602-0.531L101.924,148.11z"/>
	<polygon fill="#9A9A99" points="77.227,135.014 79.455,135.409 77.095,148.766 74.865,148.374 74.48,150.551 81.467,151.786 
		81.852,149.608 79.621,149.213 81.982,135.856 84.213,136.252 84.598,134.073 77.611,132.834 	"/>
	<polygon fill="#9A9A99" points="65.542,134.961 64.32,135.516 65.063,126.881 62.56,125.334 61.765,136.616 53.341,140.784 
		55.753,142.27 63.319,138.559 59.571,144.629 61.754,145.977 71.105,130.831 71.204,130.67 69.021,129.325 	"/>
	<polygon fill="#9A9A99" points="53.351,114.52 53.238,114.366 51.464,115.69 55.181,120.668 50.402,124.237 47.062,119.758 
		45.288,121.083 48.628,125.561 44.313,128.782 40.597,123.801 38.822,125.127 43.96,132.012 44.073,132.163 58.488,121.401 	"/>
	<path fill="#9A9A99" d="M112.756,113.502c5.113-6.535,7.375-14.666,6.371-22.902c-1.896-15.562-15.134-27.297-30.789-27.297
		c-1.259,0-2.536,0.077-3.794,0.231c-16.997,2.075-29.138,17.589-27.065,34.583c1.898,15.564,15.133,27.301,30.789,27.301
		c1.259,0,2.536-0.078,3.795-0.232C100.297,124.184,107.645,120.034,112.756,113.502z M88.268,123.288
		c-14.578,0-26.904-10.932-28.672-25.426c-1.931-15.83,9.377-30.278,25.208-32.211c1.172-0.142,2.361-0.214,3.535-0.214
		c14.578,0,26.904,10.929,28.672,25.421c0.936,7.67-1.17,15.244-5.933,21.33c-4.763,6.084-11.605,9.949-19.272,10.881
		C90.631,123.213,89.441,123.288,88.268,123.288z"/>
	<path fill="#9A9A99" d="M110.824,91.612c-1.387-11.367-11.061-19.94-22.498-19.94c-0.919,0-1.852,0.057-2.771,0.169
		c-12.416,1.515-21.287,12.847-19.773,25.265c1.387,11.369,11.055,19.945,22.49,19.945c0.92,0,1.855-0.057,2.775-0.172
		c6.016-0.732,11.386-3.766,15.121-8.537S111.557,97.631,110.824,91.612z M104.489,107.028c-3.384,4.324-8.249,7.074-13.7,7.736
		c-0.836,0.104-1.684,0.152-2.518,0.152c-10.358,0-19.117-7.768-20.375-18.068c-1.369-11.25,6.668-21.52,17.917-22.892
		c0.833-0.101,1.679-0.152,2.513-0.152c10.363,0,19.123,7.768,20.382,18.066C109.372,97.323,107.873,102.706,104.489,107.028z"/>
	<circle fill="#9A9A99" cx="136.626" cy="93.898" r="2.22"/>
	<circle fill="#9A9A99" cx="40.762" cy="93.898" r="2.22"/>
</g>
</svg>
